<svg width="61" height="62" viewBox="0 0 61 62" fill="none" xmlns="http://www.w3.org/2000/svg">
<path d="M42.8488 20.9946L42.2016 18.8645C41.3795 16.4448 38.7515 15.1497 36.3318 15.9718C34.9706 16.4343 33.9017 17.5033 33.4392 18.8645L32.792 20.9946C32.2474 22.791 32.1331 24.6904 32.4583 26.5391C32.7549 28.0956 33.7431 29.4329 35.1439 30.1733L34.4191 46.3766C34.322 47.2809 34.6154 48.1838 35.2255 48.8585C36.5377 50.2938 38.7651 50.3936 40.2004 49.0814C40.278 49.0105 40.3524 48.9361 40.4233 48.8585C41.0199 48.203 41.3127 47.3266 41.2298 46.4441L40.5009 30.1713C41.8998 29.4305 42.8864 28.0941 43.1825 26.5391C43.5077 24.6904 43.3934 22.791 42.8488 20.9946ZM41.1965 26.1883C40.9783 27.3066 40.1814 28.2241 39.1047 28.5967C38.6961 28.7503 38.4328 29.1495 38.4525 29.5856L39.2186 46.6034C39.2539 46.9372 39.1438 47.27 38.9162 47.5167C38.3092 48.1177 37.3316 48.1177 36.7246 47.5167C36.4857 47.2501 36.3772 46.8912 36.4282 46.5368L37.1883 29.5856C37.208 29.1495 36.9447 28.7503 36.5361 28.5967C35.4594 28.2241 34.6625 27.3066 34.4443 26.1883C34.1746 24.6535 34.2696 23.0767 34.7215 21.5853L35.3687 19.4542C35.8695 18.1002 37.3731 17.4085 38.7272 17.9093C39.4431 18.174 40.0074 18.7385 40.2721 19.4542L40.9193 21.5853C41.3707 23.0768 41.4657 24.6535 41.1965 26.1883Z" fill="white"/>
<path d="M27.2343 15.7332C26.6776 15.7332 26.2262 16.1845 26.2262 16.7413V25.3968L23.4973 28.1257C23.2954 28.3269 23.1881 28.6042 23.2019 28.8889L24.084 46.5306C24.1051 46.9111 23.967 47.2832 23.703 47.5579C23.1511 48.1146 22.2524 48.1187 21.6956 47.5667C21.6925 47.5638 21.6896 47.5608 21.6868 47.5579C21.4226 47.2832 21.2846 46.9111 21.3057 46.5306L22.1938 28.8889C22.2079 28.6043 22.101 28.3271 21.8995 28.1257L19.1695 25.3968V16.7413C19.1695 16.1845 18.7181 15.7332 18.1614 15.7332C17.6047 15.7332 17.1533 16.1845 17.1533 16.7413V25.8142C17.1533 26.0816 17.2597 26.3379 17.4487 26.5269L20.1565 29.2357L19.2965 46.4329C19.2051 48.3113 20.6537 49.9084 22.5322 49.9999C24.4106 50.0914 26.0077 48.6427 26.0992 46.7643C26.1046 46.6539 26.1046 46.5434 26.0992 46.433L25.2393 29.2358L27.9471 26.527C28.1361 26.338 28.2424 26.0817 28.2424 25.8143V16.7414C28.2424 16.1845 27.7911 15.7332 27.2343 15.7332Z" fill="white"/>
<path d="M21.1868 15.7332C20.6301 15.7332 20.1787 16.1845 20.1787 16.7413V24.8061C20.1787 25.3628 20.6301 25.8142 21.1868 25.8142C21.7435 25.8142 22.1949 25.3628 22.1949 24.8061V16.7413C22.1949 16.1845 21.7435 15.7332 21.1868 15.7332Z" fill="white"/>
<path d="M24.2083 15.7332C23.6516 15.7332 23.2002 16.1845 23.2002 16.7413V24.8061C23.2002 25.3628 23.6516 25.8142 24.2083 25.8142C24.765 25.8142 25.2164 25.3628 25.2164 24.8061V16.7413C25.2164 16.1845 24.765 15.7332 24.2083 15.7332Z" fill="white"/>
<path d="M30.2577 0.611816C13.555 0.611816 0.0146484 14.1521 0.0146484 30.8549C0.0146484 47.5576 13.555 61.0979 30.2577 61.0979C46.9604 61.0979 60.5007 47.5576 60.5007 30.8549C60.4818 14.1599 46.9526 0.630718 30.2577 0.611816ZM30.2577 59.0817C14.6684 59.0817 2.03085 46.4441 2.03085 30.8549C2.03085 15.2656 14.6684 2.62802 30.2577 2.62802C45.847 2.62802 58.4845 15.2656 58.4845 30.8549C58.4668 46.4367 45.8395 59.0639 30.2577 59.0817Z" fill="white"/>
<path d="M33.5316 49.7789C33.4776 49.2248 32.9845 48.8194 32.4303 48.8735C32.4173 48.8747 32.4043 48.8763 32.3913 48.878L32.3954 48.877C30.9761 49.0418 29.5423 49.0418 28.123 48.877C27.5698 48.8121 27.0689 49.2079 27.004 49.7611C26.9391 50.3143 27.3349 50.8152 27.8881 50.8801C29.4622 51.064 31.0522 51.064 32.6262 50.8801C33.1803 50.8262 33.5857 50.3331 33.5316 49.7789Z" fill="white"/>
<path d="M45.6831 17.8637C45.3253 17.4372 44.6894 17.3813 44.2629 17.7392C44.2615 17.7403 44.2601 17.7416 44.2586 17.7427C43.8331 18.1016 43.7789 18.7375 44.1376 19.1631C50.2159 26.3786 49.7509 37.048 43.068 43.7074C42.6736 44.1004 42.6725 44.7389 43.0655 45.1334C43.4586 45.5278 44.0971 45.5289 44.4915 45.1359C51.9183 37.7373 52.4362 25.8818 45.6831 17.8637Z" fill="white"/>
<path d="M23.5021 13.9379C23.5014 13.9379 23.5008 13.9377 23.5002 13.9377C23.4992 13.9377 23.4982 13.9379 23.4971 13.9379H23.5021Z" fill="white"/>
<path d="M35.0121 11.2567C31.0723 10.3125 26.9403 10.5663 23.1457 11.9855C22.6245 12.1815 22.361 12.7629 22.557 13.284C22.7047 13.6768 23.0802 13.9367 23.4997 13.9371C23.6203 13.9365 23.7397 13.9144 23.8524 13.8717C27.2696 12.5938 30.9905 12.3656 34.5383 13.2164C35.0795 13.3472 35.6242 13.0147 35.755 12.4735C35.8858 11.9322 35.5533 11.3875 35.0121 11.2567Z" fill="white"/>
<path d="M17.4039 43.6609C14.0054 40.2683 12.1008 35.6601 12.1124 30.858C12.1024 27.0215 13.3177 23.2819 15.5812 20.1843C15.9158 19.7392 15.8262 19.1072 15.3811 18.7727C14.936 18.4381 14.3041 18.5277 13.9695 18.9728C13.9636 18.9807 13.9578 18.9886 13.9521 18.9967C8.12367 27.0096 8.98131 38.0699 15.9754 45.0884C16.3696 45.4828 17.009 45.4831 17.4034 45.0889C17.7978 44.6947 17.798 44.0553 17.4039 43.6609Z" fill="white"/>
</svg>
