<svg width="60" height="60" viewBox="0 0 60 60" fill="none" xmlns="http://www.w3.org/2000/svg">
<path d="M59.9234 11.9172C59.7809 11.427 59.4557 11.0217 59.0078 10.7761C58.0116 10.2293 57.166 11.7707 58.1623 12.3171C58.2389 12.3682 58.2593 12.4358 58.2232 12.5199L52.7384 22.4819L33.9974 12.2011L34.3657 10.2351C34.3975 10.0657 34.4034 9.89781 34.3902 9.73375C34.3937 9.72766 34.3979 9.72203 34.4012 9.71582L38.7402 1.83505C38.7805 1.76204 38.8735 1.73579 38.9478 1.77657L43.672 4.36814C43.7356 4.40306 43.7654 4.47818 43.7426 4.54673C42.9079 7.06155 43.9946 9.81531 46.3265 11.0944C47.1655 11.5547 48.0795 11.7767 48.9841 11.7767C50.5926 11.7767 52.1714 11.0748 53.2457 9.76246C53.2923 9.70551 53.3731 9.6898 53.4379 9.72531L54.8872 10.5203C55.8835 11.0665 56.7289 9.52586 55.7327 8.9793L54.2834 8.18431C53.4762 7.74147 52.468 7.93728 51.8854 8.64919C50.7431 10.0448 48.7607 10.4247 47.172 9.5534C45.5842 8.68235 44.8437 6.80972 45.411 5.10044C45.7012 4.22635 45.3255 3.27023 44.5176 2.82714L39.7935 0.23557C38.87 -0.271026 37.7071 0.0667049 37.2004 0.98732L33.2616 8.14119C33.129 8.08224 32.9884 8.03595 32.8397 8.00795L27.542 7.01057C26.6359 6.84019 25.7391 7.3401 25.408 8.19884C24.7599 9.87894 22.9974 10.856 21.2162 10.5197C19.4347 10.1846 18.1447 8.63313 18.1488 6.83093C18.151 5.9109 17.496 5.11954 16.5913 4.94927L11.2936 3.95201C10.7929 3.85733 10.2847 3.96362 9.86374 4.25037C9.44187 4.53783 9.15781 4.97224 9.06383 5.47368L6.80917 17.5092L5.5623 24.1649C5.35301 25.2819 7.0808 25.6056 7.2901 24.4885L8.37489 18.6974L30.2215 22.81L23.6068 58.1202C23.5524 58.4135 22.0271 57.974 21.8706 57.9446L28.0253 25.0907C28.1064 24.6572 27.7543 24.1461 27.324 24.0652L10.6226 20.9213C10.0865 20.8715 9.74433 21.1055 9.59609 21.6231L3.4417 54.4756C3.21987 54.4338 1.707 54.2905 1.76055 54.0064L6.44636 28.993C6.65565 27.8759 4.92809 27.5526 4.71856 28.6693L0.0327556 53.6826C-0.160836 54.7158 0.523649 55.7149 1.55864 55.9097L3.98099 56.3658L6.85616 56.9069C7.76119 57.0777 8.65919 56.5775 8.99035 55.7188C9.63851 54.0388 11.4016 53.0629 13.1821 53.3978C14.9637 53.7332 16.2538 55.2847 16.2497 57.0867C16.2475 58.0067 16.9025 58.798 17.8072 58.9683L20.6824 59.5095L23.1048 59.9655C24.1056 60.1545 25.1452 59.4538 25.3345 58.444L27.1724 48.6334C28.0072 49.606 28.3089 50.9669 27.887 52.2378C27.5968 53.1119 27.9725 54.068 28.7804 54.5111L33.5047 57.1026C34.4237 57.607 35.598 57.2582 36.0978 56.3509L53.8549 24.0983L59.7629 13.3676C60.0085 12.9214 60.0656 12.4063 59.9234 11.9172ZM20.143 57.6194L18.1323 57.241C18.0597 57.2273 18.0072 57.1643 18.0074 57.091C18.0135 54.4422 16.1208 52.1625 13.5073 51.6706C13.163 51.6057 12.8198 51.5745 12.48 51.5745C10.24 51.5745 8.17814 52.9403 7.35033 55.0865C7.32432 55.154 7.2533 55.1926 7.18147 55.1797L5.16926 54.801L11.1618 22.8116L26.1356 25.6304L20.143 57.6194ZM8.69868 16.9698L10.7915 5.79746C10.8008 5.74813 10.8302 5.71895 10.8533 5.70313C10.8771 5.68684 10.9163 5.66961 10.9682 5.67946L16.2659 6.67671C16.3384 6.69042 16.3909 6.75359 16.3908 6.82683C16.3847 9.4757 18.2772 11.7553 20.8907 12.2472C23.505 12.7397 26.0944 11.3028 27.0478 8.83141C27.0738 8.76392 27.1461 8.72536 27.2166 8.73813L32.5141 9.73539C32.5974 9.75109 32.6529 9.83019 32.6376 9.91152L32.1546 12.49C32.1544 12.4908 32.1542 12.4917 32.1541 12.4925L30.7378 20.0528C30.7374 20.0547 30.7371 20.0566 30.7367 20.0584L30.5449 21.0824L8.69868 16.9698ZM28.9541 39.1219L29.4719 39.308C29.7515 39.4086 30.0628 39.361 30.2996 39.1818L31.2557 38.4582L31.1591 39.6596C31.1353 39.9543 31.2614 40.2412 31.4944 40.4231L32.5075 41.2134L31.158 41.6582C30.9016 41.7427 30.6983 41.9403 30.6065 42.1942L30.1414 43.4813L29.5477 42.4971C29.3885 42.233 29.1027 42.0722 28.7953 42.0722C28.7888 42.0722 28.7825 42.0723 28.7762 42.0725L28.3998 42.0807L28.9541 39.1219ZM29.6259 52.9701C29.5623 52.9352 29.5325 52.86 29.5552 52.7915C30.3173 50.4957 29.4774 48.0013 27.5512 46.611L28.0692 43.8461L28.3057 43.8409L29.589 45.9682C29.7491 46.2336 30.0356 46.3931 30.3413 46.3931C30.3699 46.3931 30.3988 46.3917 30.4276 46.3889C30.7648 46.3557 31.0529 46.1317 31.1681 45.8129L32.1145 43.1938L34.6212 42.3675C34.9294 42.2659 35.1564 42.003 35.2121 41.6833C35.2676 41.3636 35.1425 41.0393 34.8868 40.8399L32.9493 39.3285L33.1654 36.6445C33.1932 36.2993 33.0158 35.9699 32.712 35.8033C32.4081 35.6367 32.0354 35.6641 31.7589 35.8732L29.6186 37.4929L29.2821 37.372L32.1111 22.2706L32.437 20.5309L33.7715 18.1071L47.1243 25.4321L31.4205 53.9544L29.6259 52.9701ZM34.558 55.5031C34.5176 55.5763 34.4245 55.6022 34.3503 55.5616L32.9617 54.7999L49.0886 25.5087C49.303 25.0145 49.1873 24.6164 48.7413 24.3143L33.8474 16.1437C33.6664 16.0443 33.4655 16.0161 33.2765 16.0486L33.6566 14.0191L51.8905 24.0217L34.558 55.5031Z" fill="white"/>
<path d="M39.5606 9.90487C39.1351 9.67143 38.6007 9.82717 38.3673 10.2527C38.1339 10.6783 38.2895 11.2124 38.7151 11.446L50.1088 17.6962C50.2429 17.7698 50.3878 17.8047 50.5308 17.8047C50.8412 17.8047 51.1422 17.6399 51.3021 17.3484C51.5355 16.9228 51.3799 16.3887 50.9543 16.1551L39.5606 9.90487Z" fill="white"/>
<path d="M36.3924 22.4837C35.967 22.25 35.4328 22.4046 35.1985 22.8297L30.7556 30.8993C30.5216 31.3244 30.6764 31.8589 31.1016 32.0932C31.2361 32.1671 31.3815 32.2023 31.5247 32.2023C31.8348 32.2023 32.1354 32.038 32.2954 31.7471L36.7384 23.6776C36.9725 23.2523 36.8177 22.7178 36.3924 22.4837Z" fill="white"/>
<path d="M39.2048 24.0275C38.7795 23.7935 38.2452 23.9484 38.0109 24.3736L33.5681 32.4431C33.3341 32.8684 33.4889 33.4028 33.9141 33.637C34.0486 33.7111 34.194 33.7461 34.3372 33.7461C34.6473 33.7461 34.9479 33.5818 35.1079 33.291L39.5508 25.2214C39.7849 24.7961 39.6301 24.2617 39.2048 24.0275Z" fill="white"/>
<path d="M42.0173 25.5701C41.592 25.3359 41.0577 25.491 40.8234 25.9161L36.3806 33.9857C36.1466 34.4109 36.3014 34.9453 36.7266 35.1796C36.8611 35.2536 37.0065 35.2887 37.1497 35.2887C37.4598 35.2887 37.7604 35.1244 37.9204 34.8335L42.3633 26.764C42.5974 26.3386 42.4426 25.8042 42.0173 25.5701Z" fill="white"/>
<path d="M26.8739 15.6208L14.0977 13.2159C12.9812 13.0043 12.6557 14.7332 13.7725 14.9432L26.5487 17.3481C27.6309 17.5533 27.9713 15.8272 26.8739 15.6208Z" fill="white"/>
<path d="M19.3313 44.0619L17.023 43.2342L16.3968 40.6191C16.3161 40.2821 16.0448 40.0239 15.7044 39.9599C15.3639 39.8961 15.0175 40.038 14.8199 40.3227L13.2862 42.5332L10.8339 42.4681C10.5072 42.4607 10.2067 42.6304 10.0464 42.9123C9.88612 43.1944 9.89421 43.542 10.0676 43.8162L11.4803 46.0512L10.5507 48.6784C10.4377 48.9977 10.5182 49.3535 10.7578 49.593C10.9973 49.8326 11.3533 49.9128 11.6723 49.8003L14.0103 48.9735L15.8885 50.5911C16.0511 50.731 16.2554 50.8039 16.4621 50.8039C16.5818 50.8039 16.7021 50.7795 16.8158 50.7296C17.1258 50.5933 17.3299 50.2911 17.3406 49.9526L17.4285 47.1674L19.5568 45.5964C19.818 45.4036 19.9516 45.0826 19.9045 44.7615C19.8574 44.4404 19.637 44.1715 19.3313 44.0619ZM16.0413 46.0064C15.8246 46.1662 15.6933 46.4167 15.6848 46.6858L15.6416 48.0586L14.771 47.309C14.6091 47.1696 14.4048 47.0962 14.1974 47.0962C14.0991 47.0962 14.0001 47.1127 13.9046 47.1465L12.822 47.5293L13.2797 46.2356C13.3696 45.9817 13.3381 45.7005 13.1942 45.4728L12.4333 44.2691L13.7142 44.3031C14.0104 44.3106 14.2908 44.169 14.4597 43.9255L15.1446 42.9383L15.4242 44.1059C15.4934 44.3944 15.7031 44.6285 15.9824 44.7285L17.1874 45.1607L16.0413 46.0064Z" fill="white"/>
<path d="M13.0024 36.9367C13.4375 37.0177 13.9464 36.6711 14.0281 36.2347L15.7236 27.1843C15.9329 26.0671 14.2053 25.744 13.9958 26.8606L12.3004 35.911C12.2109 36.3881 12.5252 36.8473 13.0024 36.9367Z" fill="white"/>
<path d="M16.1557 37.5295C16.5908 37.6105 17.0997 37.2639 17.1815 36.8275L18.877 27.7771C19.0863 26.66 17.3587 26.3367 17.1492 27.4534L15.4537 36.5038C15.3643 36.9809 15.6786 37.4401 16.1557 37.5295Z" fill="white"/>
<path d="M21.3287 27.3442C20.8519 27.2551 20.3925 27.5693 20.303 28.0463L18.6075 37.0967C18.4041 38.1827 20.1227 38.5541 20.3353 37.4203L22.0308 28.3699C22.1202 27.8929 21.8058 27.4336 21.3287 27.3442Z" fill="white"/>
</svg>
