<svg width="63" height="63" viewBox="0 0 63 63" fill="none" xmlns="http://www.w3.org/2000/svg">
<path d="M60.49 60.7766V30.5336H58.4738V26.5012H56.4576V20.4526H54.4414V16.4201H52.4252V20.4526H50.409V26.5012H48.3928V4.10115L42.3442 5.31087V2.30673H40.328V5.71411L38.3118 6.11735V0.290527H36.2956V6.52059L34.2793 6.92383V2.30673H32.2631V7.32808L26.2145 8.5378V14.4039H8.06872V16.4201H10.0849V28.6091C9.75426 28.5547 9.41957 28.5174 9.07682 28.5174C5.18655 28.5174 2.02011 32.1354 2.02011 36.5822C2.02011 40.6368 4.65529 43.9927 8.06872 44.5552V45.8688C7.22494 45.1057 6.17953 44.647 5.04441 44.647C2.26508 44.647 0.00390625 47.3598 0.00390625 50.6956C0.00390625 53.6171 1.73885 56.0597 4.03631 56.6222V60.7766H0.00390625V62.7928H62.5062V60.7766H60.49ZM16.1335 59.7685C16.1335 58.1011 17.4904 56.7442 19.1578 56.7442C20.2466 56.7442 21.2567 57.3339 21.794 58.2836L22.1065 58.837L23.1902 58.7604C23.4866 58.7604 23.7991 58.8179 24.1459 58.9348L25.1258 59.2634L25.4312 58.2765C26.0875 56.1545 28.0231 54.728 30.2469 54.728C32.0797 54.728 33.7713 55.727 34.6614 57.336L35.2915 58.4771L36.2371 57.5799C37.3732 56.5033 39.2493 56.5033 40.3854 57.5799L41.331 58.4771L41.9611 57.336C42.8522 55.727 44.5438 54.728 46.3766 54.728C48.5652 54.728 50.4906 56.1272 51.1681 58.21L51.4513 59.08L52.3455 58.8824C54.3436 58.4388 56.2963 59.2614 57.4445 60.7766H16.3291C16.2142 60.452 16.1335 60.1163 16.1335 59.7685ZM58.4738 32.5498V58.8985C57.8891 58.2997 57.2106 57.8067 56.4576 57.4458V34.566H42.3442V53.9921C41.7786 54.3873 41.2635 54.857 40.83 55.4075C40.6687 55.3137 40.4993 55.2341 40.328 55.1605V32.5498H58.4738ZM46.3766 52.7118C45.683 52.7118 45.0066 52.8247 44.3604 53.0183V36.5822H48.3928V53.0041C47.7506 52.8136 47.0732 52.7118 46.3766 52.7118ZM50.409 36.5822H54.4414V56.839C53.894 56.7593 53.3365 56.721 52.7669 56.7765C52.2336 55.6343 51.409 54.6887 50.409 53.9901V36.5822ZM42.3442 30.5336V28.5174H56.4576V30.5336H42.3442ZM52.4252 22.4688H54.4414V26.5012H52.4252V22.4688ZM46.3766 6.56092V26.5012H40.328V30.5336H38.3118V54.7431C37.4327 54.7431 36.5546 54.9649 35.7935 55.4075C34.4679 53.7229 32.4295 52.7118 30.2469 52.7118C29.5493 52.7118 28.8719 52.8126 28.2307 53.0011V10.1891L46.3766 6.56092ZM12.1011 16.4201H26.2145V53.983C25.2064 54.6846 24.3778 55.6393 23.8445 56.7946C23.6318 56.7654 23.416 56.7492 23.1923 56.7472C22.2477 55.4881 20.7537 54.728 19.1578 54.728C16.3785 54.728 14.1173 56.9892 14.1173 59.7685C14.1173 60.1092 14.1627 60.4449 14.2302 60.7766H10.0849V57.1162L16.1335 50.0605V47.5795C19.547 47.017 22.1821 43.6611 22.1821 39.6065C22.1821 36.5721 20.7063 33.9258 18.5338 32.5498H20.1659V30.5336H18.1497V32.331C17.2313 31.83 16.2081 31.5417 15.1254 31.5417C14.952 31.5417 14.7746 31.5528 14.5952 31.5699C13.9288 30.6132 13.076 29.838 12.1011 29.3067V16.4201ZM16.1335 36.5822C16.1335 35.5237 15.949 34.5146 15.6234 33.5881C18.1699 33.8895 20.1659 36.4733 20.1659 39.6065C20.1659 42.9423 17.9048 45.6551 15.1254 45.6551C13.8532 45.6551 12.6445 45.0694 11.7221 44.0532C14.3048 42.8546 16.1335 39.9593 16.1335 36.5822ZM10.0849 45.2327C11.1666 46.5009 12.5769 47.3295 14.1173 47.5826V49.3155L10.0849 54.0203V45.2327ZM4.03631 36.5822C4.03631 33.2464 6.29748 30.5336 9.07682 30.5336C11.8562 30.5336 14.1173 33.2464 14.1173 36.5822C14.1173 39.5037 12.3824 41.9463 10.0849 42.5088V35.5741H8.06872V42.5088C5.77125 41.9463 4.03631 39.5037 4.03631 36.5822ZM2.02011 50.6956C2.02011 48.4717 3.37701 46.6632 5.04441 46.6632C6.71181 46.6632 8.06872 48.4717 8.06872 50.6956C8.06872 52.9195 6.71181 54.728 5.04441 54.728C3.37701 54.728 2.02011 52.9195 2.02011 50.6956ZM6.05251 56.6222C6.79851 56.4398 7.482 56.0536 8.06872 55.5234V60.7766H6.05251V56.6222Z" fill="white"/>
<path d="M36.2957 12.3879H30.2471V20.4527H36.2957V12.3879ZM34.2795 18.4365H32.2633V14.4041H34.2795V18.4365Z" fill="white"/>
<path d="M36.2967 22.4683H30.248V30.5331H36.2967V22.4683ZM34.2805 28.5169H32.2642V24.4845H34.2805V28.5169Z" fill="white"/>
<path d="M36.2957 32.5496H30.2471V40.6144H36.2957V32.5496ZM34.2795 38.5982H32.2633V34.5658H34.2795V38.5982Z" fill="white"/>
<path d="M36.2967 42.6316H30.248V50.6964H36.2967V42.6316ZM34.2805 48.6802H32.2642V44.6478H34.2805V48.6802Z" fill="white"/>
<path d="M44.3601 12.3879H38.3115V20.4527H44.3601V12.3879ZM42.3439 18.4365H40.3277V14.4041H42.3439V18.4365Z" fill="white"/>
<path d="M14.1172 18.4358H16.1334V20.452H14.1172V18.4358Z" fill="white"/>
<path d="M18.1494 18.4358H20.1656V20.452H18.1494V18.4358Z" fill="white"/>
<path d="M22.1826 18.4358H24.1988V20.452H22.1826V18.4358Z" fill="white"/>
<path d="M14.1172 22.4683H16.1334V24.4845H14.1172V22.4683Z" fill="white"/>
<path d="M18.1504 22.4683H20.1666V24.4845H18.1504V22.4683Z" fill="white"/>
<path d="M22.1816 22.4683H24.1978V24.4845H22.1816V22.4683Z" fill="white"/>
<path d="M18.1504 26.5007H20.1666V28.5169H18.1504V26.5007Z" fill="white"/>
<path d="M14.1172 26.5007H16.1334V28.5169H14.1172V26.5007Z" fill="white"/>
<path d="M22.1816 26.5007H24.1978V28.5169H22.1816V26.5007Z" fill="white"/>
<path d="M22.1826 30.5332H24.1988V32.5494H22.1826V30.5332Z" fill="white"/>
</svg>
