<svg width="63" height="63" viewBox="0 0 63 63" fill="none" xmlns="http://www.w3.org/2000/svg">
<path d="M27.2189 36.624C25.0011 36.624 23.1865 38.4386 23.1865 40.6564V42.6726C23.1865 44.8905 25.0011 46.705 27.2189 46.705C29.4368 46.705 31.2513 44.8905 31.2513 42.6726V40.6564C31.2513 38.4386 29.4368 36.624 27.2189 36.624ZM29.2351 42.6726C29.2351 43.7815 28.3278 44.6888 27.2189 44.6888C26.11 44.6888 25.2027 43.7815 25.2027 42.6726V40.6564C25.2027 39.5475 26.11 38.6402 27.2189 38.6402C28.3278 38.6402 29.2351 39.5475 29.2351 40.6564V42.6726Z" fill="white"/>
<path d="M15.1213 50.7363C15.7261 50.7363 16.1294 50.3331 16.1294 49.7282C16.1294 49.1233 15.7261 48.7201 15.1213 48.7201C14.0124 48.7201 13.1051 47.8128 13.1051 46.7039V44.6877C13.1051 44.2844 13.2059 43.8812 13.5083 43.5788C13.8107 43.0747 13.7099 42.4699 13.2059 42.1674C12.7018 41.865 12.097 41.9658 11.7945 42.4699C11.2905 43.0747 11.0889 43.8812 11.0889 44.6877V46.7039C11.0889 48.9217 12.9034 50.7363 15.1213 50.7363Z" fill="white"/>
<path d="M47.381 50.7365C49.5989 50.7365 51.4134 48.9219 51.4134 46.7041V44.6879C51.4134 42.4701 49.5989 40.6555 47.381 40.6555C45.1632 40.6555 43.3486 42.4701 43.3486 44.6879V46.7041C43.3486 48.9219 45.1632 50.7365 47.381 50.7365ZM45.3648 44.6879C45.3648 43.579 46.2721 42.6717 47.381 42.6717C48.4899 42.6717 49.3972 43.579 49.3972 44.6879V46.7041C49.3972 47.813 48.4899 48.7203 47.381 48.7203C46.2721 48.7203 45.3648 47.813 45.3648 46.7041V44.6879Z" fill="white"/>
<path d="M59.4784 42.9746C60.0833 42.9746 60.4865 42.5713 60.4865 41.9665V37.7324C60.4865 36.2203 59.4784 34.9098 58.0671 34.6073C56.1517 34.3049 54.4379 35.8171 54.4379 37.6316V43.4786L50.7079 52.7532H44.0545L41.5342 46.3013C41.3326 45.7973 40.7277 45.4948 40.2237 45.6964C39.7196 45.8981 39.4172 46.5029 39.6188 47.007L42.4415 54.0637C42.6431 54.4669 42.9456 54.6685 43.3488 54.6685H51.4136C51.8168 54.6685 52.2201 54.4669 52.3209 54.0637L56.4541 43.8819V37.6316C56.4541 37.0268 56.8574 36.6235 57.4622 36.6235C58.0671 36.6235 58.4703 37.0268 58.4703 37.6316V41.9665C58.4703 42.4705 58.8736 42.9746 59.4784 42.9746Z" fill="white"/>
<path d="M44.5578 14.7469C44.7594 15.0493 45.2635 15.4526 45.9692 14.9485C46.3724 14.6461 46.4732 13.9404 46.1708 13.5372C43.8521 10.6137 40.5254 8.69829 36.7954 8.09343C36.2914 7.99262 35.6865 8.39586 35.6865 8.89991C35.6865 9.40396 35.989 10.0088 36.493 10.0088C39.7189 10.5129 42.5416 12.2266 44.5578 14.7469Z" fill="white"/>
<path d="M50.707 19.2834C50.8079 19.2834 51.6143 19.5858 52.0176 18.6785C52.2192 18.1745 52.0176 17.5696 51.4127 17.368C50.8079 17.1664 50.203 16.864 49.6989 16.5615C49.1949 16.2591 48.59 16.4607 48.2876 16.9648C47.9852 17.4688 48.1868 18.0737 48.6908 18.3761C49.3965 18.6785 50.0014 19.0818 50.707 19.2834Z" fill="white"/>
<path d="M61.4939 60.8179H55.4453L56.3526 56.0798L59.9818 46.9061C60.2842 46.2005 60.385 45.4948 60.385 44.7891C60.385 44.1842 59.9818 43.781 59.3769 43.781C58.7721 43.781 58.3688 44.1842 58.3688 44.7891C58.3688 45.2932 58.268 45.6964 58.0664 46.2005L54.4372 55.475L53.4291 60.8179H51.6145C51.0097 60.8179 50.6064 61.2212 50.6064 61.826C50.6064 62.4309 51.0097 62.8341 51.6145 62.8341H61.4939C62.0988 62.8341 62.502 62.4309 62.502 61.826C62.502 61.2212 62.0988 60.8179 61.4939 60.8179Z" fill="white"/>
<path d="M47.7842 60.8179H41.3323L40.3242 55.475L39.0137 52.249C38.812 51.745 38.2072 51.4425 37.7031 51.6442C37.1991 51.8458 36.8967 52.4506 37.0983 52.9547L38.308 55.979L39.3161 60.8179H34.4772L36.191 52.0474L39.8202 42.8737C40.1226 42.168 40.2234 41.4623 40.2234 40.7567V33.7C40.2234 32.1878 39.2153 30.8773 37.8039 30.5749C35.9894 30.2724 34.2756 31.7846 34.2756 33.5992V39.4461L30.5456 48.7207H23.8922L20.1622 39.4461V33.5992C20.1622 32.6919 19.7589 31.8854 19.1541 31.3813L25.8075 19.889L30.5456 20.5946C33.7715 21.0987 36.5942 22.7117 38.6104 25.2319C38.812 25.5343 39.3161 25.8368 40.0218 25.4335C40.5258 25.1311 40.5258 24.4254 40.2234 24.0222C37.9048 21.0987 34.578 19.1833 30.8481 18.5784L26.9165 17.9736L33.8724 5.87637L38.6104 6.58204C41.8364 7.08609 44.659 8.69905 46.6752 11.2193C48.9939 14.1428 52.3206 16.0582 56.0506 16.6631L59.9822 17.2679L53.0263 29.3651L48.2882 28.6595C46.1712 28.357 44.0542 27.4497 42.3404 26.1392C41.9372 25.8368 41.2315 25.8368 40.9291 26.3408C40.6266 26.7441 40.6266 27.4497 41.1307 27.7522C43.1469 29.2643 45.4655 30.2724 47.9858 30.6757L53.3287 31.4821C53.3287 31.4821 54.0344 31.6838 54.3368 30.9781L62.4016 16.9655C62.8049 15.8566 61.9984 15.5541 61.6959 15.4533L56.353 14.6468C53.1271 14.1428 50.3044 12.5298 48.2882 10.0096C45.9696 7.08609 42.6428 5.1707 38.9129 4.56584L34.9813 3.96098L36.2918 1.74315C36.4934 1.33991 36.2918 0.735054 35.7877 0.432623C35.2837 0.130193 34.6788 0.331813 34.4772 0.835864L17.2387 30.5749C17.2387 30.5749 14.416 30.2724 14.1136 33.5992V40.7567C14.1136 41.4623 14.2144 42.168 14.5168 42.8737L18.146 52.0474L19.8597 60.8179H14.1136C13.5087 60.8179 13.1055 61.2211 13.1055 61.826C13.1055 62.4309 13.5087 62.8341 14.1136 62.8341H47.7842C48.389 62.8341 48.7923 62.4309 48.7923 61.826C48.7923 61.2211 48.389 60.8179 47.7842 60.8179ZM34.2756 51.4425L32.461 60.8179H21.9768L20.1622 51.4425L16.4322 42.0672C16.2306 41.664 16.1298 41.2607 16.1298 40.7567V33.5992C16.1298 32.9943 16.533 32.5911 17.1379 32.5911C17.7427 32.5911 18.146 32.9943 18.146 33.5992V39.8494L22.2792 50.132C22.4808 50.5353 22.7832 50.7369 23.1865 50.7369H31.2513C31.6545 50.7369 32.0578 50.5353 32.1586 50.132L36.2918 39.8494V33.5992C36.2918 32.9943 36.695 32.5911 37.2999 32.5911C37.9048 32.5911 38.308 32.9943 38.308 33.5992V40.7567C38.308 41.2607 38.2072 41.664 38.0056 42.168L34.2756 51.4425Z" fill="white"/>
<path d="M10.3834 60.818H9.07291L8.06481 55.475L4.33484 46.0997C4.13322 45.6964 4.0324 45.2932 4.0324 44.7892V37.6316C4.0324 37.0268 4.43565 36.6235 5.04051 36.6235C5.64537 36.6235 6.04861 37.0268 6.04861 37.6316V43.8819L10.1818 54.1645C10.3834 54.5677 10.6859 54.7694 11.0891 54.7694H16.5329C17.1377 54.7694 17.541 54.3661 17.541 53.7613C17.541 53.1564 17.1377 52.7532 16.5329 52.7532H11.7948L8.06481 43.4786V37.7324C8.06481 36.2203 7.05671 34.9098 5.64537 34.6073C3.72997 34.3049 2.0162 35.8171 2.0162 37.6316V44.7892C2.0162 45.4948 2.11701 46.2005 2.41944 46.9062L6.04861 56.0799L7.05671 60.818H1.0081C0.40324 60.818 0 61.2212 0 61.8261C0 62.4309 0.40324 62.8342 1.0081 62.8342H10.3834C10.9883 62.8342 11.3915 62.4309 11.3915 61.8261C11.3915 61.2212 10.9883 60.818 10.3834 60.818Z" fill="white"/>
</svg>
