<svg width="61" height="54" viewBox="0 0 61 54" fill="none" xmlns="http://www.w3.org/2000/svg">
<path d="M41.7246 18.5887L43.149 17.1653L44.5725 18.5897L43.148 20.0131L41.7246 18.5887Z" fill="white"/>
<path d="M38.876 15.7396L40.3004 14.3157L41.7243 15.7396L40.3004 17.1635L38.876 15.7396Z" fill="white"/>
<path d="M36.0273 12.8917L37.4518 11.4678L38.8757 12.8917L37.4518 14.3156L36.0273 12.8917Z" fill="white"/>
<path d="M47.4219 24.2848L48.8463 22.8608L50.2702 24.2848L48.8463 25.7087L47.4219 24.2848Z" fill="white"/>
<path d="M44.5732 21.4356L45.9972 20.0112L47.4216 21.4352L45.9977 22.8596L44.5732 21.4356Z" fill="white"/>
<path d="M32.6532 37.5479C32.2746 37.5474 31.9285 37.335 31.7569 36.9982L29.9381 33.4315L25.985 34.0564C25.5518 34.1282 25.1216 33.9109 24.9229 33.5195C24.7238 33.1276 24.8015 32.6526 25.1147 32.3448L27.9453 29.5142L26.133 25.9475C25.9348 25.5586 26.0095 25.0866 26.3183 24.7783C26.6266 24.4695 27.0986 24.3948 27.4871 24.5929L31.0552 26.4057L33.8854 23.5741C34.1932 23.2604 34.6686 23.1827 35.06 23.3819C35.4519 23.581 35.6692 24.0107 35.5974 24.4439L34.9573 28.4074L38.5249 30.2262C38.9129 30.4248 39.1292 30.8506 39.0604 31.2813C38.9915 31.712 38.6533 32.0493 38.2225 32.1172L34.2684 32.7436L33.6479 36.6977C33.5796 37.1285 33.2418 37.4662 32.811 37.5346C32.7589 37.5434 32.7058 37.5479 32.6532 37.5479ZM30.5041 31.3113C30.8827 31.3113 31.2293 31.5242 31.4014 31.8615L32.1433 33.3184L32.3995 31.7071C32.4678 31.2764 32.8061 30.9386 33.2373 30.8703L34.8481 30.6136L33.3912 29.8716C33.0023 29.6735 32.7855 29.2482 32.8533 28.8175L33.109 27.2013L31.9565 28.3573C31.6477 28.665 31.1757 28.7398 30.7873 28.5411L29.3289 27.7992L30.0724 29.2565C30.27 29.645 30.1953 30.117 29.887 30.4253L28.73 31.5832L30.3462 31.3275C30.3983 31.3177 30.4509 31.3123 30.5041 31.3113Z" fill="white"/>
<path d="M60.115 15.8626L55.1303 10.8779L54.4183 11.5898C53.6572 12.3632 52.5401 12.6691 51.4908 12.3913C50.4421 12.113 49.6229 11.2938 49.3451 10.2446C49.0673 9.19579 49.3731 8.07819 50.1471 7.31755L50.859 6.60559L45.8743 1.62185C44.6947 0.441804 42.7816 0.441804 41.6015 1.62185L38.0422 5.18166L35.9063 3.04578C34.7263 1.86573 32.8136 1.86573 31.6336 3.04578L0.894802 33.7845C-0.285246 34.9646 -0.285246 36.8777 0.894802 38.0573L5.87952 43.042L6.59099 42.3301C7.78677 41.1884 9.66846 41.1884 10.8637 42.3301C12.0438 43.5096 12.0438 45.4228 10.8637 46.6023L10.1518 47.3143L15.1365 52.3C16.3161 53.479 18.2282 53.479 19.4078 52.3L22.9676 48.7392L25.1045 50.8751C26.284 52.0546 28.1962 52.0546 29.3762 50.8751L60.115 20.1343C61.2951 18.9543 61.2951 17.0411 60.115 15.8616V15.8626ZM17.9829 50.8741C17.7941 51.0634 17.5379 51.1696 17.2709 51.1696C17.0034 51.1696 16.7473 51.0634 16.5585 50.8741L12.9283 47.242C14.252 45.2453 13.986 42.5926 12.2921 40.8988C10.5977 39.2049 7.9451 38.9394 5.94885 40.2635L2.31774 36.6334C1.92439 36.24 1.92439 35.6028 2.31774 35.2095L33.0575 4.4697C33.2463 4.2804 33.5025 4.1742 33.77 4.1742C34.0374 4.1742 34.2936 4.2804 34.4824 4.4697L36.6183 6.60559L10.8628 32.3621C9.6837 33.5417 9.6837 35.4538 10.8628 36.6334L15.8465 41.6181L16.5585 40.9061C17.738 39.7261 19.6512 39.7261 20.8307 40.9061C22.0108 42.0857 22.0108 43.9988 20.8307 45.1784L20.1178 45.8904L21.5427 47.3143L17.9829 50.8741ZM58.6911 18.7114L27.9513 49.4502C27.558 49.8435 26.9203 49.8435 26.5274 49.4502L22.8963 45.8191C24.216 43.8223 23.9475 41.1726 22.2547 39.4812C20.5613 37.7933 17.9155 37.5263 15.9188 38.8415L12.2867 35.2095C11.8933 34.8166 11.8933 34.1789 12.2867 33.7855L43.0255 3.04578C43.2143 2.85697 43.4709 2.75027 43.7379 2.75027C44.0054 2.75027 44.2616 2.85697 44.4504 3.04578L48.0815 6.67098C46.7593 8.66723 47.0258 11.3179 48.7187 13.0113C50.4116 14.7042 53.0628 14.9711 55.059 13.6495L58.6921 17.2826C59.0849 17.6754 59.0849 18.3131 58.6921 18.7065L58.6911 18.7114Z" fill="white"/>
</svg>
