<svg width="56" height="56" viewBox="0 0 56 56" fill="none" xmlns="http://www.w3.org/2000/svg">
<path d="M52.7154 31.8754C54.1411 29.4256 55.0906 26.6666 55.4366 23.7252C55.4379 23.7159 55.4388 23.7065 55.44 23.6972C55.5342 22.8872 55.5842 22.0637 55.5842 21.2287C55.5842 15.7149 53.4706 10.6858 50.0119 6.90773C49.9568 6.83054 49.8919 6.76015 49.8181 6.69951C47.5714 4.30985 44.7793 2.43842 41.6415 1.28833C41.5851 1.26289 41.5266 1.24169 41.4668 1.22642C39.2426 0.433403 36.8491 0 34.3555 0C31.5745 0 28.9168 0.538573 26.4805 1.51521C26.4143 1.53514 26.3507 1.56144 26.2892 1.59367C23.2936 2.82857 20.6406 4.73011 18.5151 7.11213C18.4456 7.17362 18.3837 7.24274 18.3315 7.31908C15.0912 11.0475 13.1269 15.9129 13.1269 21.2287C13.1269 22.0255 13.1727 22.8122 13.2588 23.5865C13.2596 23.5963 13.2609 23.6056 13.2621 23.6149C13.4199 25.0203 13.7155 26.3841 14.1349 27.6932L2.73114 39.097C2.30707 39.5211 2.30707 40.2085 2.73114 40.6326C2.94318 40.8446 3.22095 40.9506 3.49871 40.9506C3.77648 40.9506 4.05425 40.8446 4.26629 40.6326L14.986 29.9133C15.2846 30.5761 15.6162 31.2215 15.9788 31.8462C16.0118 31.9208 16.0538 31.9908 16.1026 32.0557C18.7938 36.575 23.1142 40.0151 28.248 41.5604L20.6003 49.2077C20.1767 49.6318 20.1767 50.3192 20.6003 50.7433C20.8123 50.9553 21.0905 51.0614 21.3683 51.0614C21.6461 51.0614 21.9238 50.9553 22.1359 50.7433L30.7323 42.1465C31.9103 42.3501 33.1206 42.4573 34.3555 42.4573C42.0885 42.4573 48.8682 38.3002 52.5797 32.104C52.6339 32.0336 52.6797 31.9573 52.7154 31.8754ZM43.3221 31.9183L39.4597 25.9745L41.5135 19.6537L46.395 18.5574L47.6651 18.2725L53.2149 23.9716C52.8778 26.3006 52.1178 28.4947 51.0152 30.4735L43.3221 31.9183ZM29.2518 25.9745L25.3911 31.9153L17.6742 30.4344C16.5686 28.4392 15.8112 26.2255 15.483 23.8762L21.0401 18.2708L27.198 19.6537L28.5665 23.866L29.2518 25.9745ZM18.5537 10.5866L19.5329 16.7072L15.3015 20.9755C15.352 17.1338 16.5432 13.5623 18.5537 10.5866ZM31.2331 25.0462L29.3154 19.1444L34.3356 15.4973L39.3558 19.1448L37.4381 25.0462H31.2331ZM53.4108 21.0607L49.1574 16.6928L49.9093 10.2282C52.0848 13.2955 53.3756 17.0308 53.4108 21.0607ZM47.9912 7.92932L47.0302 16.1898L44.6944 16.714L40.913 17.563L35.4611 13.6021V7.72491L41.3532 3.502C43.8726 4.50026 46.1291 6.02099 47.9912 7.92932ZM38.7634 2.68693L34.3097 5.87892L29.3447 2.84129C30.9422 2.40534 32.6219 2.17125 34.3555 2.17125C35.8724 2.17125 37.3482 2.35021 38.7634 2.68693ZM26.7099 3.77425L33.25 7.7758V13.6021L29.4045 16.3959L27.7985 17.563L21.6478 16.1822L20.384 8.28299C22.1503 6.37806 24.2999 4.83401 26.7099 3.77425ZM19.3531 32.9674L25.2108 34.0921L28.1942 39.2632C24.6697 38.0559 21.6079 35.8427 19.3531 32.9674ZM31.133 40.0121L27.176 33.1532L31.0333 27.2174H37.6777L41.5351 33.1532L37.5789 40.0117C36.5306 40.1911 35.4539 40.2857 34.3555 40.2857C33.2572 40.2861 32.1809 40.1915 31.133 40.0121ZM40.5173 39.2632L43.499 34.0942L49.3342 32.998C47.082 35.8583 44.0295 38.0601 40.5173 39.2632Z" fill="white"/>
<path d="M14.9515 39.097L0.318055 53.7309C-0.106018 54.155 -0.106018 54.8424 0.318055 55.2665C0.530091 55.4781 0.807859 55.5841 1.08563 55.5841C1.36339 55.5841 1.64116 55.4781 1.8532 55.2661L16.4871 40.6326C16.9108 40.2085 16.9108 39.5211 16.4871 39.097C16.063 38.6734 15.3756 38.6734 14.9515 39.097Z" fill="white"/>
<path d="M18.0378 52.2205C17.7524 52.2205 17.4725 52.3367 17.2706 52.5385C17.0688 52.7404 16.9521 53.0203 16.9521 53.3069C16.9521 53.5923 17.0683 53.8714 17.2706 54.0737C17.4725 54.2768 17.7524 54.3926 18.0378 54.3926C18.3236 54.3926 18.6035 54.2768 18.8053 54.0737C19.0072 53.8718 19.1234 53.5923 19.1234 53.3069C19.1234 53.0203 19.0076 52.7404 18.8053 52.5385C18.6035 52.3367 18.3236 52.2205 18.0378 52.2205Z" fill="white"/>
</svg>
