<svg width="56" height="52" viewBox="0 0 56 52" fill="none" xmlns="http://www.w3.org/2000/svg">
<path d="M55.3095 15.6407C55.3095 13.7288 53.7704 12.1786 51.8721 12.1786H46.0043C47.5228 10.67 48.4947 8.6924 48.4947 6.25679C48.4947 3.25779 46.7846 0 41.9841 0C35.6677 0 30.3911 6.7735 27.9118 10.5705C25.4308 6.77437 19.9927 0.00086545 13.6771 0.00086545C8.87668 0.00086545 7.16652 3.25865 7.16652 6.25766C7.16652 8.69234 8.16512 10.6709 9.71457 12.1795H3.74707C1.84871 12.1795 0.30957 13.7296 0.30957 15.6415V26.0043H3.77715V48.5379C3.77715 50.4499 5.31624 52 7.21465 52H48.4475C50.3458 52 51.885 50.4499 51.885 48.5379V26.0035H55.3096V15.6407H55.3095ZM41.9841 3.46292C44.1093 3.46292 45.0572 4.36224 45.0572 6.25771C45.0572 10.1032 40.7956 12.1778 36.7875 12.1778H30.9686C33.4109 8.52443 37.7096 3.46292 41.9841 3.46292ZM13.6771 3.46297C17.9525 3.46297 22.4134 8.52449 24.8558 12.177H19.0352C15.0271 12.177 10.6039 10.0487 10.6039 6.20318C10.6039 4.30858 11.5518 3.46297 13.6771 3.46297ZM51.872 22.5414H29.5283V15.6407H51.872V22.5414ZM3.74702 15.6407H26.0908V22.5414H3.74702V15.6407ZM7.2146 26.0035H26.0908V48.5371H7.2146V26.0035ZM48.4483 48.5371H29.5283V26.0035H48.4483V48.5371Z" fill="#FFCC33"/>
</svg>
