<svg width="64" height="64" viewBox="0 0 64 64" fill="none" xmlns="http://www.w3.org/2000/svg">
<path d="M25.1754 59.5492L4.16713 36.3503C3.85759 36.0085 3.71713 35.5391 3.77665 35.0453C3.83618 34.5514 4.09081 34.0737 4.48453 33.7172L36.8448 4.4125C37.3396 3.96439 37.9993 3.75796 38.6013 3.86574L58.0126 7.39905C58.3672 7.46344 58.6794 7.63368 58.91 7.88829C59.1405 8.14289 59.2791 8.47046 59.3081 8.82964L60.9051 28.4952C60.9293 28.7949 60.8765 29.1063 60.7513 29.4018C60.626 29.6973 60.4323 29.9677 60.1874 30.189L27.8271 59.4937C27.6322 59.6702 27.4089 59.8117 27.1702 59.91C26.9314 60.0084 26.6818 60.0616 26.4355 60.0668C26.1893 60.0719 25.9513 60.0289 25.7351 59.9401C25.5189 59.8513 25.3287 59.7185 25.1754 59.5492V59.5492Z" stroke="#FFCC33" stroke-width="6"/>
</svg>
