<svg width="46" height="36" viewBox="0 0 46 36" fill="none" xmlns="http://www.w3.org/2000/svg">
<path d="M44.3571 0H1.64286C0.734152 0 0 0.73125 0 1.63636V34.3636C0 35.2687 0.734152 36 1.64286 36H44.3571C45.2659 36 46 35.2687 46 34.3636V1.63636C46 0.73125 45.2659 0 44.3571 0ZM42.3036 5.66591V32.3182H3.69643V5.66591L2.27946 4.56648L4.2971 1.98409L6.49442 3.68693H39.5107L41.708 1.98409L43.7257 4.56648L42.3036 5.66591ZM39.5107 3.68182L23 16.4659L6.48929 3.68182L4.29196 1.97898L2.27433 4.56136L3.69129 5.6608L21.2288 19.2426C21.7331 19.6329 22.3536 19.8447 22.9923 19.8447C23.631 19.8447 24.2515 19.6329 24.7558 19.2426L42.3036 5.66591L43.7205 4.56648L41.7029 1.98409L39.5107 3.68182Z" fill="black"/>
</svg>
