<svg width="56" height="53" viewBox="0 0 56 53" fill="none" xmlns="http://www.w3.org/2000/svg">
<path d="M55.2556 28.2287C55.269 28.1339 55.269 28.0377 55.2556 27.9428C55.2826 27.475 55.3096 27.0071 55.3096 26.5132C55.3122 20.4594 53.1615 14.5878 49.2164 9.87789C49.1315 9.7393 49.022 9.61614 48.8929 9.514C45.9648 6.13524 42.2131 3.50954 37.9738 1.87214L37.7042 1.76817C31.3344 -0.58939 24.2847 -0.58939 17.915 1.76817L17.6454 1.87214C13.4061 3.50954 9.65433 6.13524 6.72624 9.514C6.59717 9.61614 6.48767 9.7393 6.40271 9.87789C2.45762 14.5878 0.30697 20.4594 0.309573 26.5132C0.309573 27.0071 0.336534 27.475 0.363494 27.9428C0.350173 28.0377 0.350173 28.1339 0.363494 28.2287C0.661002 32.6331 2.09766 36.8956 4.54242 40.6273C4.60368 40.7597 4.6855 40.8824 4.78506 40.9912C8.50182 46.4852 14.1973 50.4576 20.7728 52.142H20.8806C25.4237 53.286 30.1954 53.286 34.7385 52.142H34.8463C41.4218 50.4576 47.1173 46.4852 50.8341 40.9912C50.9336 40.8824 51.0155 40.7597 51.0767 40.6273C53.5215 36.8956 54.9581 32.6331 55.2556 28.2287ZM38.7826 38.4179L36.2483 35.0648L39.861 24.3818L43.9321 23.1082L51.9664 28.7226C51.634 32.1468 50.52 35.4576 48.7042 38.4179H38.7826ZM16.8365 38.4179H6.91496C5.09917 35.4576 3.98514 32.1468 3.65271 28.7226L11.687 23.1082L15.7581 24.3818L19.3708 35.0648L16.8365 38.4179ZM7.23849 14.0887L9.5032 20.7688L3.59879 24.9017C3.87356 21.0641 5.12354 17.3506 7.23849 14.0887ZM22.3365 33.7912L18.9395 23.732L27.8096 17.5197L36.6797 23.732L33.2826 33.7912H22.3365ZM48.3537 14.0887C50.4883 17.3435 51.7485 21.0597 52.0204 24.9017L46.1159 20.7688L48.3537 14.0887ZM45.9811 11.0476L42.9346 20.145L38.8635 21.4187L29.4272 14.7905V10.6837L37.4615 5.04325C40.7248 6.41637 43.6338 8.46651 45.9811 11.0476ZM33.714 3.82159L27.8096 7.95443L21.9052 3.82159C25.7816 2.88621 29.8375 2.88621 33.714 3.82159ZM18.1576 5.04325L26.1919 10.6837V14.7905L16.7556 21.4187L12.6846 20.145L9.638 11.0476C11.9854 8.46651 14.8943 6.41637 18.1576 5.04325ZM9.20663 41.537H16.486L18.7507 48.2171C15.057 46.7653 11.7824 44.4734 9.20663 41.537ZM22.5253 49.3608L19.4517 40.2374L21.986 36.9103H33.6331L36.1674 40.2374L33.0939 49.3608C29.6115 50.0887 26.0077 50.0887 22.5253 49.3608ZM36.8684 48.2171L39.1331 41.537H46.4125C43.8367 44.4734 40.5622 46.7653 36.8684 48.2171Z" fill="#FFCC33"/>
</svg>
