<svg width="61" height="12" viewBox="0 0 61 12" fill="none" xmlns="http://www.w3.org/2000/svg">
<path fill-rule="evenodd" clip-rule="evenodd" d="M9.80668 9.80375V4.90431H6.54039V3.27117H9.80668V0.00488281H11.4398V11.4369H9.80668H6.54039V9.80375H9.80668ZM50.6353 3.27117H52.2684V4.90431H50.6353V9.80375H49.0021V4.90431H47.369V3.27117H49.0021V0.00488281H50.6353V3.27117ZM37.5701 4.90431V11.4369H35.937V4.90431H34.3038V3.27117H37.5701V4.90431ZM3.2741 4.90431V11.4369H1.64096V4.90431H0.0078125V3.27117H3.2741V4.90431ZM26.1381 9.80375V8.1706H22.8718V6.53746H26.1381V4.90431H27.7713V11.4369H26.1381H22.8718V9.80375H26.1381ZM58.801 9.80375V8.1706H55.5347V6.53746H58.801V4.90431H60.4341V11.4369H58.801H55.5347V9.80375H58.801ZM17.9724 8.1706H14.7061V9.80375H13.073V4.90431H14.7061V6.53746H17.9724V4.90431H19.6055V8.1706H17.9724ZM32.6707 1.63803V11.4369H31.0375V1.63803H29.4044V0.00488281H32.6707V1.63803ZM40.8364 3.27117H45.7358V4.90431H40.8364V3.27117ZM39.2033 4.90431H40.8364V6.53746H39.2033V4.90431ZM40.8364 6.53746H44.1027V8.1706H40.8364V6.53746ZM44.1027 8.1706H45.7358V9.80375H44.1027V8.1706ZM39.2033 9.80375H44.1027V11.4369H39.2033V9.80375ZM14.7061 9.80375H17.9724V11.4369H14.7061V9.80375ZM14.7061 3.27117H17.9724V4.90431H14.7061V3.27117ZM55.5347 3.27117H58.801V4.90431H55.5347V3.27117ZM53.9016 8.1706H55.5347V9.80375H53.9016V8.1706ZM22.8718 3.27117H26.1381V4.90431H22.8718V3.27117ZM21.2387 8.1706H22.8718V9.80375H21.2387V8.1706ZM1.64096 0.00488281H3.2741V1.63803H1.64096V0.00488281ZM35.937 0.00488281H37.5701V1.63803H35.937V0.00488281ZM50.6353 9.80375H52.2684V11.4369H50.6353V9.80375ZM4.90724 4.90431H6.54039V9.80375H4.90724V4.90431Z" fill="black"/>
</svg>
