<svg width="189" height="44" viewBox="0 0 189 44" fill="none" xmlns="http://www.w3.org/2000/svg">
<path d="M9.26062 0.640137C3.08063 0.700136 0.320625 4.78014 0.320625 11.0801C0.320625 22.7801 15.5006 22.9601 15.5006 33.0401C15.5006 37.5401 13.7606 40.7801 9.14063 40.7801C4.52063 40.7801 2.78062 37.5401 2.78062 33.0401V30.7001H0.140625V32.8601C0.140625 38.9201 2.78063 43.3601 9.20063 43.3601C15.6206 43.3601 18.2606 38.9201 18.2606 32.8601C18.2606 21.2801 3.08063 21.1001 3.08063 10.9001C3.08063 6.46014 4.76063 3.16014 9.32063 3.16014C13.8806 3.16014 15.5606 6.52014 15.5606 10.9601V12.0401H18.2006V11.1401C18.2006 5.08014 15.6206 0.640137 9.26062 0.640137Z" fill="#F9FAFB"/>
<path d="M32.6077 1.00014H23.9077V43.0001H26.6677V25.7201H31.8877C38.5477 25.7201 41.6077 22.4201 41.6077 15.7601V11.2001C41.6077 5.08014 39.0877 1.00014 32.6077 1.00014ZM31.8877 23.2001H26.6677V3.52014H32.6077C37.2877 3.52014 38.8477 6.46014 38.8477 11.0201V15.9401C38.8477 21.0401 36.7477 23.2001 31.8877 23.2001Z" fill="#F9FAFB"/>
<path d="M46.9003 11.2601V32.7401C46.9003 38.8601 49.7203 43.3601 56.0803 43.3601C62.5603 43.3601 65.3803 38.8601 65.3803 32.7401V11.2601C65.3803 5.14014 62.5603 0.640137 56.0803 0.640137C49.7203 0.640137 46.9003 5.14014 46.9003 11.2601ZM49.6603 32.9201V11.0801C49.6603 6.52014 51.4603 3.16014 56.0803 3.16014C60.7603 3.16014 62.6203 6.52014 62.6203 11.0801V32.9201C62.6203 37.4801 60.7603 40.8401 56.0803 40.8401C51.4603 40.8401 49.6603 37.4801 49.6603 32.9201Z" fill="#F9FAFB"/>
<path d="M79.8919 1.00014H71.1319V43.0001H73.8919V24.2201H78.2719C83.0719 24.2201 86.1319 25.7801 86.1319 31.3601V37.9601C86.1319 40.2401 86.3119 41.7401 87.0319 43.0001H89.9119C89.0119 41.6201 88.8919 39.7001 88.8919 37.9601V31.4201C88.8919 26.8601 87.1519 23.8001 82.8319 22.8401C86.9719 21.8801 88.8919 19.0601 88.8919 14.1401V10.4801C88.8919 4.54014 86.3119 1.00014 79.8919 1.00014ZM78.3319 21.7001H73.8919V3.52014H79.8319C84.3919 3.52014 86.1319 6.22014 86.1319 10.7201V14.6801C86.1319 20.3201 83.2519 21.7001 78.3319 21.7001Z" fill="#F9FAFB"/>
<path d="M102.736 43.0001H105.496V3.52014H114.016V1.00014H94.1564V3.52014H102.736V43.0001Z" fill="#F9FAFB"/>
<path d="M127.645 1.00014H118.825V43.0001H127.825C134.245 43.0001 137.005 39.3401 137.005 33.2801V29.6201C137.005 24.8801 135.265 21.5201 130.705 20.6201C134.965 19.7201 136.225 16.9001 136.225 12.3401V9.94014C136.225 4.12014 133.945 1.00014 127.645 1.00014ZM126.265 19.5401H121.585V3.52014H127.585C132.085 3.52014 133.465 5.80014 133.465 10.1801V12.8801C133.465 18.2201 131.185 19.5401 126.265 19.5401ZM127.825 40.4801H121.585V22.0601H126.805C131.785 22.0601 134.245 23.9801 134.245 29.4401V33.2201C134.245 37.9001 132.445 40.4801 127.825 40.4801Z" fill="#F9FAFB"/>
<path d="M142.521 11.2601V32.7401C142.521 38.8601 145.341 43.3601 151.701 43.3601C158.181 43.3601 161.001 38.8601 161.001 32.7401V11.2601C161.001 5.14014 158.181 0.640137 151.701 0.640137C145.341 0.640137 142.521 5.14014 142.521 11.2601ZM145.281 32.9201V11.0801C145.281 6.52014 147.081 3.16014 151.701 3.16014C156.381 3.16014 158.241 6.52014 158.241 11.0801V32.9201C158.241 37.4801 156.381 40.8401 151.701 40.8401C147.081 40.8401 145.281 37.4801 145.281 32.9201Z" fill="#F9FAFB"/>
<path d="M176.553 23.4401L185.073 43.0001H188.013L178.593 21.2201L187.413 1.00014H184.773L176.793 19.0601L168.873 1.00014H165.993L174.813 21.2201L165.333 43.0001H168.033L176.553 23.4401Z" fill="#F9FAFB"/>
</svg>
